<svg aria-hidden="true" style="position: absolute; width: 0; height: 0; overflow: hidden;" version="1.1" xmlns="http://www.w3.org/2000/svg" xmlns:xlink="http://www.w3.org/1999/xlink">
<defs>
<symbol id="icon-arrow" viewBox="0 0 51 32">
<path d="M0.591 4.907l4.317-4.317c0.788-0.788 2.078-0.786 2.863 0l17.889 17.889 17.89-17.889c0.788-0.788 2.079-0.784 2.863 0l4.317 4.317c0.785 0.786 0.785 2.077 0 2.863l-23.639 23.639c-0.785 0.784-2.075 0.788-2.863 0l-23.638-23.639c-0.789-0.788-0.789-2.075 0-2.863z"></path>
</symbol>
<symbol id="icon-facebook" viewBox="0 0 32 32">
<path d="M16 3.2c-7.069 0-12.8 5.731-12.8 12.8 0 6.417 4.727 11.716 10.886 12.642v-9.25h-3.167v-3.364h3.167v-2.239c0-3.707 1.806-5.333 4.886-5.333 1.475 0 2.256 0.11 2.625 0.159v2.937h-2.101c-1.308 0-1.764 1.241-1.764 2.638v1.839h3.833l-0.519 3.364h-3.313v9.277c6.247-0.847 11.068-6.189 11.068-12.669 0-7.069-5.731-12.8-12.8-12.8z"></path>
</symbol>
<symbol id="icon-linkedin" viewBox="0 0 32 32">
<path d="M8.643 4c-0.001 0-0.001 0-0.002 0-1.458 0-2.64 1.182-2.641 2.64v0c0 1.46 1.183 2.67 2.64 2.67 1.459 0 2.643-1.21 2.643-2.668 0-0.001 0-0.001 0-0.002 0-1.458-1.182-2.64-2.64-2.64v0zM21.535 11c-2.219 0-3.488 1.16-4.098 2.314h-0.064v-2.003h-4.373v14.689h4.557v-7.271c0-1.916 0.144-3.768 2.515-3.768 2.337 0 2.371 2.185 2.371 3.889v7.15h4.557v-8.068c0-3.948-0.849-6.932-5.465-6.932zM6.363 11.31v14.69h4.56v-14.69h-4.56z"></path>
</symbol>
<symbol id="icon-Menu" viewBox="0 0 35 32">
<path d="M0-0h34.784v5.432h-34.784zM0 13.246h34.784v5.432h-34.784zM0 26.569h34.784v5.431h-34.784z"></path>
</symbol>
<symbol id="icon-Search" viewBox="0 0 32 32">
<path d="M28.010 31.837l-7.574-7.574c-2.033 1.35-4.531 2.155-7.216 2.155-0.006 0-0.012 0-0.018 0h0.001c-7.3 0-13.203-5.916-13.203-13.216 0-7.286 5.903-13.202 13.203-13.202 7.287 0 13.201 5.916 13.201 13.202 0 2.548-0.718 4.923-1.959 6.934l7.628 7.627c0.404 0.393 0.065 1.372-0.745 2.18l-1.136 1.139c-0.81 0.808-1.79 1.147-2.182 0.756zM22.017 13.202c0-4.871-3.945-8.815-8.815-8.815s-8.828 3.944-8.828 8.815 3.956 8.828 8.828 8.828c4.871 0 8.815-3.956 8.815-8.828z"></path>
</symbol>
<symbol id="icon-twitter" viewBox="0 0 32 32">
<path d="M25.333 4h-18.667c-1.473 0-2.667 1.194-2.667 2.667v0 18.667c0 1.473 1.194 2.667 2.667 2.667v0h18.667c1.473 0 2.667-1.194 2.667-2.667v0-18.667c0-1.473-1.194-2.667-2.667-2.667v0zM22.733 12.685v0.457c0 4.343-3.315 9.372-9.372 9.372-1.828 0-3.543-0.572-5.028-1.485h0.8c1.485 0 2.972-0.572 4.115-1.372-1.485 0-2.628-1.028-3.085-2.285 0.228 0 0.457 0.115 0.572 0.115 0.343 0 0.572 0 0.915-0.115-1.485-0.343-2.628-1.6-2.628-3.2 0.457 0.228 0.915 0.343 1.485 0.457-0.915-0.8-1.485-1.715-1.485-2.857 0-0.572 0.115-1.143 0.457-1.6 1.6 1.943 4 3.315 6.743 3.428 0-0.228-0.115-0.457-0.115-0.8 0.002-1.83 1.485-3.313 3.315-3.315h0c0.915 0 1.828 0.343 2.4 1.028 0.8-0.115 1.485-0.457 2.057-0.8-0.228 0.8-0.8 1.372-1.485 1.828 0.685-0.115 1.257-0.228 1.943-0.572-0.454 0.66-0.984 1.226-1.587 1.704l-0.016 0.012z"></path>
</symbol>
<symbol id="icon-2539811901530177263" viewBox="0 0 32 32">
<path d="M31 18c-0.509 0-1 0.438-1 1v11h-28v-28h11c0.531 0 1-0.469 1-1s-0.5-1-1-1h-11c-1.105 0-2 0.895-2 2v0 28c0 1.105 0.895 2 2 2v0h28c1.105 0 2-0.895 2-2v0-11.015c0-0.554-0.406-0.985-1-0.985z"></path>
<path d="M31 0h-10c-0.552 0-1 0.448-1 1s0.448 1 1 1v0h7.596l-20.314 20.313c-0.18 0.18-0.291 0.428-0.291 0.703 0 0.549 0.445 0.993 0.993 0.993 0.274 0 0.522-0.111 0.702-0.291l20.314-20.314v7.596c0 0.552 0.448 1 1 1s1-0.448 1-1v0-10c0-0.538-0.462-1-1-1z"></path>
</symbol>
<symbol id="icon-up-arrow" viewBox="0 0 32 32">
<path d="M16 0c-8.836 0-16 7.164-16 16s7.163 16 16 16 16-7.164 16-16c0-8.836-7.164-16-16-16zM23.22 20.244c-0.583 0.583-1.529 0.583-2.113 0l-5.148-5.149-5.176 5.175c-0.583 0.583-1.529 0.583-2.113 0-0.291-0.292-0.437-0.674-0.437-1.057s0.146-0.764 0.438-1.056l6.004-6.005c0.061-0.095 0.127-0.178 0.201-0.253l-0 0c0.298-0.298 0.691-0.442 1.082-0.435 0.391-0.007 0.784 0.137 1.082 0.435 0.074 0.075 0.141 0.157 0.198 0.246l0.004 0.006 5.978 5.978c0.583 0.583 0.584 1.529 0 2.113z"></path>
</symbol>
<symbol id="burger" viewBox="0 0 32 32">
<path d="M3.429 8c0-0.631 0.512-1.143 1.143-1.143v0h22.857c0.631 0 1.143 0.512 1.143 1.143s-0.512 1.143-1.143 1.143v0h-22.857c-0.631 0-1.143-0.512-1.143-1.143v0zM3.429 16c0-0.631 0.512-1.143 1.143-1.143v0h22.857c0.631 0 1.143 0.512 1.143 1.143s-0.512 1.143-1.143 1.143v0h-22.857c-0.631 0-1.143-0.512-1.143-1.143v0zM4.571 22.857c-0.631 0-1.143 0.512-1.143 1.143s0.512 1.143 1.143 1.143v0h22.857c0.631 0 1.143-0.512 1.143-1.143s-0.512-1.143-1.143-1.143v0h-22.857z"></path>
</symbol>
<symbol id="cross" viewBox="0 0 32 32">
<path d="M6.4 3.462l9.6 9.6 9.6-9.571c0.354-0.36 0.846-0.583 1.39-0.583 0.023 0 0.045 0 0.068 0.001l-0.003-0c1.094 0.073 1.963 0.942 2.036 2.030l0 0.007c0 0.006 0 0.013 0 0.019 0 0.54-0.223 1.028-0.581 1.377l-0 0-9.629 9.658 9.629 9.658c0.378 0.367 0.588 0.873 0.582 1.396-0.073 1.094-0.942 1.963-2.030 2.036l-0.007 0c-0.019 0.001-0.042 0.001-0.064 0.001-0.544 0-1.036-0.223-1.39-0.583l-0-0-9.6-9.571-9.571 9.571c-0.354 0.36-0.846 0.583-1.39 0.583-0.023 0-0.045-0-0.068-0.001l0.003 0c-1.116-0.060-2.006-0.95-2.065-2.060l-0-0.006c-0-0.006-0-0.013-0-0.019 0-0.54 0.223-1.028 0.581-1.377l9.63-9.63-9.658-9.658c-0.342-0.347-0.553-0.823-0.553-1.349 0-0.017 0-0.034 0.001-0.050l-0 0.002c0.073-1.094 0.942-1.963 2.030-2.036l0.007-0c0.028-0.001 0.060-0.002 0.092-0.002 0.53 0 1.011 0.212 1.362 0.555l-0-0z"></path>
</symbol>
</defs>
</svg>
